<?xml version="1.0" encoding="UTF-8"?>
<svg width="211px" height="203px" viewBox="0 0 211 203" version="1.1" xmlns="http://www.w3.org/2000/svg" xmlns:xlink="http://www.w3.org/1999/xlink">
    <!-- Generator: Sketch 49.3 (51167) - http://www.bohemiancoding.com/sketch -->
    <title>SavvyBI</title>
    <desc>Created with Sketch.</desc>
    <defs></defs>
    <g id="Page-1" stroke="none" stroke-width="1" fill="none" fill-rule="evenodd">
        <g id="SavvyBI">
            <path d="M114.838769,62.06 L96.1963394,62.06 C89.4906822,62.06 83.3818636,58.58 78.9933444,52.9584615 C74.5697171,47.3369231 71.8312812,39.6184615 71.8312812,31.0969231 C71.8312812,22.8430769 74.3941764,15.0353846 78.9933444,9.23538462 C83.4169717,3.61384615 89.4906822,0.133846154 96.1963394,0.133846154 C102.691348,0.133846154 108.835275,3.39076923 113.399334,9.23538462 C117.822962,14.8569231 120.561398,22.5753846 120.561398,31.0969231 L109.11614,31.0969231 C109.11614,26.5907692 107.676705,22.4861538 105.324459,19.4969231 C102.972213,16.5076923 99.7422629,14.6784615 96.1963394,14.6784615 C92.650416,14.6784615 89.4204659,16.5076923 87.0682196,19.4969231 C84.7159734,22.4861538 83.2765391,26.5907692 83.2765391,31.0969231 C83.2765391,35.6030769 84.7159734,39.7076923 87.0682196,42.6969231 C89.4204659,45.6861538 92.650416,47.5153846 96.1963394,47.5153846 C102.410483,47.5153846 108.624626,47.5153846 114.838769,47.5153846 C116.804825,47.5153846 118.735774,47.8276923 120.561398,48.3630769 C124.985025,49.7461538 128.952246,52.6461538 132.041764,56.5723077 C136.465391,62.1938462 139.203827,69.9123077 139.203827,78.4338462 C139.203827,86.6876923 136.640932,94.4953846 132.041764,100.295385 C127.618136,105.916923 121.544426,109.396923 114.838769,109.396923 C108.133111,109.396923 102.024293,105.916923 97.6357737,100.295385 C93.2121464,94.6738462 90.4737105,86.9553846 90.4737105,78.4338462 L90.4737105,66.1646154 L101.918968,66.1646154 L101.918968,78.4338462 C101.918968,82.94 103.358403,87.0446154 105.710649,90.0338462 C108.062895,93.0230769 111.292845,94.8523077 114.838769,94.8523077 C118.384692,94.8523077 121.614642,93.0230769 123.966889,90.0338462 C126.319135,87.0446154 127.758569,82.94 127.758569,78.4338462 C127.758569,74.0615385 126.389351,69.9123077 123.966889,66.8338462 C121.614642,63.9338462 118.384692,62.06 114.838769,62.06 Z" id="Shape" fill="#489795"></path>
            <path d="M27.0332779,148.926154 L30.6143095,146.070769 C27.2439268,138.753846 21.8723794,137.281538 16.1848586,137.281538 C9.58452579,137.281538 1.50965058,140.716923 1.61497504,150.844615 C1.61497504,160.66 8.74193012,162.801538 16.0795341,164.273846 C21.8021631,165.389231 27.1386023,167.129231 27.068386,173.107692 C27.068386,180.246154 20.9244592,182.075385 16.290183,182.075385 C11.6207987,182.075385 6.49500832,179.309231 4.0374376,173.553846 L0.105324459,176.453846 C3.05440932,184.529231 9.47920133,187.652308 16.2199667,187.652308 C23.5224626,187.652308 31.6675541,184.127692 31.7377704,173.286154 C31.7377704,162.355385 24.2246256,160.436923 16.6061564,158.92 C10.9888519,157.76 6.2843594,156.243077 6.2843594,150.978462 C6.2843594,145.089231 11.4452579,142.68 16.290183,142.68 C20.5733777,142.769231 24.997005,144.732308 27.0332779,148.926154 Z M60.4913478,186.76 L64.7745424,186.76 L64.7745424,152.584615 L60.4211314,152.584615 L60.3860233,158.830769 C58.4199667,154.413846 54.4527454,152.049231 50.4153078,152.049231 C42.7617304,151.96 36.5826955,158.607692 36.5826955,169.672308 C36.5826955,180.781538 42.6212978,187.563077 50.3450915,187.563077 C54.0314476,187.563077 58.1391015,185.332308 60.2455907,180.647692 L60.3509151,186.849231 L60.4913478,186.76 Z M50.6610649,157.358462 C63.5457571,157.358462 63.5457571,182.387692 50.5908486,182.387692 C45.2544093,182.387692 40.9712146,177.48 40.9712146,169.895385 C40.9712146,162.310769 45.2544093,157.447692 50.5908486,157.447692 L50.6610649,157.358462 Z M70.3567388,152.584615 L81.7317804,186.804615 L86.6118136,186.804615 L97.9517471,152.584615 L93.0366057,152.584615 L88.6831947,166.013846 L84.1542429,180.736923 L79.590183,165.924615 L75.236772,152.584615 L70.3567388,152.584615 Z M100.865724,152.584615 L112.240765,186.804615 L117.120799,186.804615 L128.425624,152.584615 L123.545591,152.584615 L119.19218,166.013846 L114.663228,180.736923 L110.099168,165.924615 L105.780865,152.584615 L100.865724,152.584615 Z M141.907155,170.341538 L136.640932,152.584615 L131.585358,152.584615 L142.398669,186.269231 L136.781364,202.866154 L141.556073,202.866154 L158.548419,152.584615 L153.668386,152.584615 L147.735108,170.430769 L144.85624,180.112308 L141.907155,170.341538 Z M171.503328,165.790769 L182.49218,165.790769 C185.441265,165.790769 189.619135,168.066154 189.619135,172.438462 C189.619135,176.989231 185.441265,178.238462 182.49218,178.238462 L171.503328,178.238462 L171.503328,165.790769 Z M171.503328,146.561538 L182.49218,146.561538 C187.05624,146.561538 188.460566,150.309231 188.460566,152.54 C188.460566,155.306154 186.986023,157.76 182.49218,157.76 L171.503328,157.76 L171.503328,146.561538 Z M182.49218,138.263077 C176.453577,138.263077 170.414975,138.263077 164.446589,138.263077 L164.446589,186.715385 C170.485191,186.715385 176.453577,186.715385 182.49218,186.715385 C190.391514,186.715385 196.74609,183.28 196.74609,172.483077 C196.74609,169.449231 195.131115,163.426154 190.637271,161.686154 C194.183195,159.678462 195.587521,156.064615 195.587521,152.316923 C195.587521,142.590769 190.005324,138.263077 182.49218,138.263077 Z M210.824459,186.76 L210.824459,138.263077 L203.697504,138.263077 L203.697504,186.715385 L210.824459,186.715385 L210.824459,186.76 Z" id="Shape" fill="#525252"></path>
            <path d="M101.918968,31.0969231 L101.918968,44.08 L96.1963394,44.08 C94.1600666,44.08 92.19401,43.4553846 90.4737105,42.3846154 L90.4737105,31.0969231 L101.918968,31.0969231 Z" id="Shape" fill="#525252"></path>
        </g>
    </g>
</svg>