<?xml version="1.0" encoding="UTF-8"?>
<svg width="211px" height="246px" viewBox="0 0 211 246" version="1.1" xmlns="http://www.w3.org/2000/svg" xmlns:xlink="http://www.w3.org/1999/xlink">
    <!-- Generator: Sketch 49.3 (51167) - http://www.bohemiancoding.com/sketch -->
    <title>SavvyBI SBI</title>
    <desc>Created with Sketch.</desc>
    <defs></defs>
    <g id="Page-1" stroke="none" stroke-width="1" fill="none" fill-rule="evenodd">
        <g id="SavvyBI-SBI">
            <path d="M134.654195,139.1 L76.5458051,139.1 C55.6442939,139.1 36.6031266,131.3 22.9241271,118.7 C9.13569567,106.1 0.6,88.8 0.6,69.7 C0.6,51.2 8.5885357,33.7 22.9241271,20.7 C36.7125586,8.1 55.6442939,0.3 76.5458051,0.3 C96.7907243,0.3 115.941324,7.6 130.167483,20.7 C143.955915,33.3 152.49161,50.6 152.49161,69.7 L116.81678,69.7 C116.81678,59.6 112.330068,50.4 104.998124,43.7 C97.6661803,37 87.5984367,32.9 76.5458051,32.9 C65.4931735,32.9 55.4254299,37 48.0934862,43.7 C40.7615425,50.4 36.2748306,59.6 36.2748306,69.7 C36.2748306,79.8 40.7615425,89 48.0934862,95.7 C55.4254299,102.4 65.4931735,106.5 76.5458051,106.5 C95.9152684,106.5 115.284732,106.5 134.654195,106.5 C140.782387,106.5 146.801146,107.2 152.49161,108.4 C166.280042,111.5 178.645857,118 188.275873,126.8 C202.064304,139.4 210.6,156.7 210.6,175.8 C210.6,194.3 202.611464,211.8 188.275873,224.8 C174.487441,237.4 155.555706,245.2 134.654195,245.2 C113.752684,245.2 94.7115164,237.4 81.0325169,224.8 C67.2440855,212.2 58.7083898,194.9 58.7083898,175.8 L58.7083898,148.3 L94.3832204,148.3 L94.3832204,175.8 C94.3832204,185.9 98.8699323,195.1 106.201876,201.8 C113.53382,208.5 123.601563,212.6 134.654195,212.6 C145.706826,212.6 155.77457,208.5 163.106514,201.8 C170.438458,195.1 174.925169,185.9 174.925169,175.8 C174.925169,166 170.657322,156.7 163.106514,149.8 C155.77457,143.3 145.706826,139.1 134.654195,139.1 Z" id="Shape" fill="#489795"></path>
            <path d="M86.3,69.7 L86.3,98.8 L70,98.8 C64.2,98.8 58.6,97.4 53.7,95 L53.7,69.7 L86.3,69.7 Z" id="Shape" fill="#525252"></path>
        </g>
    </g>
</svg>