<?xml version="1.0" encoding="UTF-8"?>
<svg width="271px" height="74px" viewBox="0 0 271 74" version="1.1" xmlns="http://www.w3.org/2000/svg" xmlns:xlink="http://www.w3.org/1999/xlink">
    <!-- Generator: Sketch 49.3 (51167) - http://www.bohemiancoding.com/sketch -->
    <title>SavvyBI</title>
    <desc>Created with Sketch.</desc>
    <defs></defs>
    <g id="Page-1" stroke="none" stroke-width="1" fill="none" fill-rule="evenodd">
        <g id="SavvyBI">
            <path d="M107.896868,24.6530612 L111.074808,22.0408163 C108.083805,15.3469388 103.316894,14 98.2695768,14 C92.4121959,14 85.2462512,17.1428571 85.3397201,26.4081633 C85.3397201,35.3877551 91.6644452,37.3469388 98.176108,38.6938776 C103.254582,39.7142857 107.990337,41.3061224 107.928024,46.7755102 C107.928024,53.3061224 102.475675,54.9795918 98.3630457,54.9795918 C94.2192602,54.9795918 89.6704432,52.4489796 87.4895035,47.1836735 L84,49.8367347 C86.6171276,57.2244898 92.3187271,60.0816327 98.3007331,60.0816327 C104.78124,60.0816327 112.009497,56.8571429 112.071809,46.9387755 C112.071809,36.9387755 105.404365,35.1836735 98.6434522,33.7959184 C93.6584472,32.7346939 89.4835055,31.3469388 89.4835055,26.5306122 C89.4835055,21.1428571 94.0634788,18.9387755 98.3630457,18.9387755 C102.164112,19.0204082 106.089803,20.8163265 107.896868,24.6530612 Z M137.588804,59.2653061 L141.38987,59.2653061 L141.38987,28 L137.526491,28 L137.495335,33.7142857 C135.750583,29.6734694 132.229923,27.5102041 128.646951,27.5102041 C121.854882,27.4285714 116.371376,33.5102041 116.371376,43.6326531 C116.371376,53.7959184 121.730257,60 128.584638,60 C131.856048,60 135.501333,57.9591837 137.37071,53.6734694 L137.464179,59.3469388 L137.588804,59.2653061 Z M128.865045,32.3673469 C140.2994,32.3673469 140.2994,55.2653061 128.802732,55.2653061 C124.066978,55.2653061 120.265911,50.7755102 120.265911,43.8367347 C120.265911,36.8979592 124.066978,32.4489796 128.802732,32.4489796 L128.865045,32.3673469 Z M146.343719,28 L156.438354,59.3061224 L160.769077,59.3061224 L170.832556,28 L166.470676,28 L162.607298,40.2857143 L158.588137,53.755102 L154.537821,40.2040816 L150.674442,28 L146.343719,28 Z M173.418527,28 L183.513162,59.3061224 L187.843885,59.3061224 L197.876208,28 L193.545485,28 L189.682106,40.2857143 L185.662946,53.755102 L181.612629,40.2040816 L177.780407,28 L173.418527,28 Z M209.84022,44.244898 L205.166778,28 L200.680273,28 L210.276408,58.8163265 L205.291403,74 L209.528657,74 L224.608297,28 L220.277574,28 L215.012163,44.3265306 L212.457348,53.1836735 L209.84022,44.244898 Z M236.104965,40.0816327 L245.856881,40.0816327 C248.474009,40.0816327 252.181606,42.1632653 252.181606,46.1632653 C252.181606,50.3265306 248.474009,51.4693878 245.856881,51.4693878 L236.104965,51.4693878 L236.104965,40.0816327 Z M236.104965,22.4897959 L245.856881,22.4897959 C249.907198,22.4897959 251.153449,25.9183673 251.153449,27.9591837 C251.153449,30.4897959 249.844885,32.7346939 245.856881,32.7346939 L236.104965,32.7346939 L236.104965,22.4897959 Z M245.856881,14.8979592 C240.498001,14.8979592 235.13912,14.8979592 229.842552,14.8979592 L229.842552,59.2244898 C235.201433,59.2244898 240.498001,59.2244898 245.856881,59.2244898 C252.867044,59.2244898 258.506331,56.0816327 258.506331,46.2040816 C258.506331,43.4285714 257.073142,37.9183673 253.085138,36.3265306 C256.231923,34.4897959 257.478174,31.1836735 257.478174,27.755102 C257.478174,18.8571429 252.524325,14.8979592 245.856881,14.8979592 Z M271,59.2653061 L271,14.8979592 L264.675275,14.8979592 L264.675275,59.2244898 L271,59.2244898 L271,59.2653061 Z" id="Shape" fill="#525252"></path>
            <g id="Group">
                <path d="M40.9355339,41.6451838 L23.2777203,41.6451838 C16.9262281,41.6451838 11.1400519,39.3099398 6.9833161,35.5376227 C2.79332644,31.7653055 0.199523317,26.5858542 0.199523317,20.8675004 C0.199523317,15.3287808 2.62705701,10.0894514 6.9833161,6.19737818 C11.1733058,2.42506103 16.9262281,0.089817075 23.2777203,0.089817075 C29.4296893,0.089817075 35.2491193,2.2753659 39.5721245,6.19737818 C43.7621142,9.96969533 46.3559173,15.1491467 46.3559173,20.8675004 L35.5151504,20.8675004 C35.5151504,17.8436589 34.1517411,15.0892686 31.9237307,13.0833539 C29.6957203,11.0774393 26.6363628,9.84993923 23.2777203,9.84993923 C19.9190778,9.84993923 16.8597203,11.0774393 14.6317099,13.0833539 C12.4036995,15.0892686 11.0402902,17.8436589 11.0402902,20.8675004 C11.0402902,23.891342 12.4036995,26.6457323 14.6317099,28.6516469 C16.8597203,30.6575616 19.9190778,31.8850616 23.2777203,31.8850616 C29.1636582,31.8850616 35.049596,31.8850616 40.9355339,31.8850616 C42.7977515,31.8850616 44.6267152,32.0946348 46.3559173,32.4539031 C50.545907,33.3820129 54.3035961,35.3280495 57.2299381,37.9626837 C61.4199278,41.7350009 64.0137309,46.9144522 64.0137309,52.632806 C64.0137309,58.1715256 61.5861972,63.410855 57.2299381,67.3029282 C53.0399484,71.0752454 47.2870261,73.4104893 40.9355339,73.4104893 C34.5840416,73.4104893 28.7978654,71.0752454 24.6411297,67.3029282 C20.45114,63.5306111 17.8573369,58.3511597 17.8573369,52.632806 L17.8573369,44.3995741 L28.6981038,44.3995741 L28.6981038,52.632806 C28.6981038,55.6566475 30.0615131,58.4110378 32.2895235,60.4169525 C34.5175338,62.4228671 37.5768914,63.6503672 40.9355339,63.6503672 C44.2941764,63.6503672 47.3535339,62.4228671 49.5815443,60.4169525 C51.8095547,58.4110378 53.172964,55.6566475 53.172964,52.632806 C53.172964,49.6987815 51.8760624,46.9144522 49.5815443,44.8486595 C47.3535339,42.9026228 44.2941764,41.6451838 40.9355339,41.6451838 Z" id="Shape" fill="#489795"></path>
                <path d="M28.6981038,20.8675004 L28.6981038,29.5797567 L23.2777203,29.5797567 C21.3489949,29.5797567 19.4867773,29.1606104 17.8573369,28.4420738 L17.8573369,20.8675004 L28.6981038,20.8675004 Z" id="Shape" fill="#525252"></path>
            </g>
        </g>
    </g>
</svg>