<?xml version="1.0" encoding="UTF-8"?>
<svg width="61px" height="66px" viewBox="0 0 61 66" version="1.1" xmlns="http://www.w3.org/2000/svg" xmlns:xlink="http://www.w3.org/1999/xlink">
    <!-- Generator: Sketch 49.3 (51167) - http://www.bohemiancoding.com/sketch -->
    <title>SavvyBI</title>
    <desc>Created with Sketch.</desc>
    <defs></defs>
    <g id="Page-1" stroke="none" stroke-width="1" fill="none" fill-rule="evenodd">
        <g id="SavvyBI">
            <g id="Group">
                <path d="M38.9072539,37.3195122 L22.1243523,37.3195122 C16.0875648,37.3195122 10.5880829,35.2268293 6.6373057,31.8463415 C2.65492228,28.4658537 0.189637306,23.8243902 0.189637306,18.7 C0.189637306,13.7365854 2.49689119,9.04146341 6.6373057,5.55365854 C10.6196891,2.17317073 16.0875648,0.0804878049 22.1243523,0.0804878049 C27.9715026,0.0804878049 33.5025907,2.03902439 37.611399,5.55365854 C41.5937824,8.93414634 44.0590674,13.5756098 44.0590674,18.7 L33.7554404,18.7 C33.7554404,15.9902439 32.4595855,13.5219512 30.3419689,11.7243902 C28.2243523,9.92682927 25.3165803,8.82682927 22.1243523,8.82682927 C18.9321244,8.82682927 16.0243523,9.92682927 13.9067358,11.7243902 C11.7891192,13.5219512 10.4932642,15.9902439 10.4932642,18.7 C10.4932642,21.4097561 11.7891192,23.8780488 13.9067358,25.6756098 C16.0243523,27.4731707 18.9321244,28.5731707 22.1243523,28.5731707 C27.7186528,28.5731707 33.3129534,28.5731707 38.9072539,28.5731707 C40.6772021,28.5731707 42.415544,28.7609756 44.0590674,29.0829268 C48.0414508,29.9146341 51.6129534,31.6585366 54.3943005,34.0195122 C58.3766839,37.4 60.8419689,42.0414634 60.8419689,47.1658537 C60.8419689,52.1292683 58.534715,56.8243902 54.3943005,60.3121951 C50.4119171,63.6926829 44.9440415,65.7853659 38.9072539,65.7853659 C32.8704663,65.7853659 27.3709845,63.6926829 23.4202073,60.3121951 C19.4378238,56.9317073 16.9725389,52.2902439 16.9725389,47.1658537 L16.9725389,39.7878049 L27.2761658,39.7878049 L27.2761658,47.1658537 C27.2761658,49.8756098 28.5720207,52.3439024 30.6896373,54.1414634 C32.8072539,55.9390244 35.7150259,57.0390244 38.9072539,57.0390244 C42.0994819,57.0390244 45.0072539,55.9390244 47.1248705,54.1414634 C49.242487,52.3439024 50.538342,49.8756098 50.538342,47.1658537 C50.538342,44.5365854 49.3056995,42.0414634 47.1248705,40.1902439 C45.0072539,38.4463415 42.0994819,37.3195122 38.9072539,37.3195122 Z" id="Shape" fill="#489795"></path>
                <path d="M27.2761658,18.7 L27.2761658,26.5073171 L22.1243523,26.5073171 C20.2911917,26.5073171 18.5212435,26.1317073 16.9725389,25.4878049 L16.9725389,18.7 L27.2761658,18.7 Z" id="Shape" fill="#525252"></path>
            </g>
        </g>
    </g>
</svg>